<mxfile host="app.diagrams.net" modified="2021-12-21T16:31:38.414Z" agent="5.0 (Windows NT 10.0; Win64; x64) AppleWebKit/537.36 (KHTML, like Gecko) Chrome/96.0.4664.110 Safari/537.36" etag="IvVhnxHUKFucSNsKN2R2" version="16.0.2" type="github">
  <diagram id="fsKUEpt00cAQXqf5Vs6Y" name="Page-1">
    <mxGraphModel dx="2062" dy="1122" grid="1" gridSize="10" guides="1" tooltips="1" connect="1" arrows="1" fold="1" page="1" pageScale="1" pageWidth="850" pageHeight="1100" math="0" shadow="0">
      <root>
        <mxCell id="0" />
        <mxCell id="1" parent="0" />
        <mxCell id="f-GdbEtR7hPHFlpdBjNb-2" value="User" style="shape=umlActor;verticalLabelPosition=bottom;verticalAlign=top;html=1;" parent="1" vertex="1">
          <mxGeometry x="150" y="130" width="30" height="60" as="geometry" />
        </mxCell>
        <mxCell id="f-GdbEtR7hPHFlpdBjNb-3" value="&lt;u&gt;:Total Health&lt;/u&gt;" style="html=1;" parent="1" vertex="1">
          <mxGeometry x="600" y="140" width="110" height="50" as="geometry" />
        </mxCell>
        <mxCell id="f-GdbEtR7hPHFlpdBjNb-6" value="" style="endArrow=none;dashed=1;html=1;rounded=0;" parent="1" edge="1">
          <mxGeometry width="50" height="50" relative="1" as="geometry">
            <mxPoint x="165" y="620" as="sourcePoint" />
            <mxPoint x="165" y="220" as="targetPoint" />
          </mxGeometry>
        </mxCell>
        <mxCell id="f-GdbEtR7hPHFlpdBjNb-7" value="" style="endArrow=none;dashed=1;html=1;rounded=0;" parent="1" edge="1">
          <mxGeometry width="50" height="50" relative="1" as="geometry">
            <mxPoint x="654" y="620" as="sourcePoint" />
            <mxPoint x="654.4100000000001" y="190" as="targetPoint" />
          </mxGeometry>
        </mxCell>
        <mxCell id="w5Yw9LY-AuXsBXbNcG6X-1" value="&lt;font face=&quot;Georgia&quot;&gt;&lt;br&gt;&lt;span style=&quot;font-size: 13px ; color: rgb(0 , 0 , 0) ; font-weight: normal ; text-decoration: none ; font-style: normal&quot;&gt;Food Suggestions Screen is Displayed&lt;/span&gt;&lt;br&gt;&lt;br&gt;&lt;/font&gt;" style="endArrow=open;endFill=1;endSize=12;html=1;rounded=0;" parent="1" edge="1">
          <mxGeometry width="160" relative="1" as="geometry">
            <mxPoint x="650" y="270" as="sourcePoint" />
            <mxPoint x="170" y="270" as="targetPoint" />
          </mxGeometry>
        </mxCell>
        <mxCell id="w5Yw9LY-AuXsBXbNcG6X-2" value="" style="endArrow=block;dashed=1;endFill=0;endSize=12;html=1;rounded=0;" parent="1" edge="1">
          <mxGeometry width="160" relative="1" as="geometry">
            <mxPoint x="170" y="240" as="sourcePoint" />
            <mxPoint x="650" y="240" as="targetPoint" />
          </mxGeometry>
        </mxCell>
        <mxCell id="w5Yw9LY-AuXsBXbNcG6X-4" value="&lt;font face=&quot;Georgia&quot;&gt;goToFoodScreen1()&lt;/font&gt;" style="edgeLabel;html=1;align=center;verticalAlign=middle;resizable=0;points=[];" parent="w5Yw9LY-AuXsBXbNcG6X-2" vertex="1" connectable="0">
          <mxGeometry x="0.0382" y="2" relative="1" as="geometry">
            <mxPoint as="offset" />
          </mxGeometry>
        </mxCell>
        <mxCell id="w5Yw9LY-AuXsBXbNcG6X-5" value="" style="endArrow=block;dashed=1;endFill=0;endSize=12;html=1;rounded=0;" parent="1" edge="1">
          <mxGeometry width="160" relative="1" as="geometry">
            <mxPoint x="170" y="370.0000000000001" as="sourcePoint" />
            <mxPoint x="650" y="370.0000000000001" as="targetPoint" />
          </mxGeometry>
        </mxCell>
        <mxCell id="w5Yw9LY-AuXsBXbNcG6X-6" value="&lt;font face=&quot;Georgia&quot;&gt;selectFoodDropDown()&lt;/font&gt;" style="edgeLabel;html=1;align=center;verticalAlign=middle;resizable=0;points=[];" parent="w5Yw9LY-AuXsBXbNcG6X-5" vertex="1" connectable="0">
          <mxGeometry x="0.0382" y="2" relative="1" as="geometry">
            <mxPoint as="offset" />
          </mxGeometry>
        </mxCell>
        <mxCell id="w5Yw9LY-AuXsBXbNcG6X-8" value="&lt;font face=&quot;Georgia&quot;&gt;&lt;span style=&quot;font-size: 13px ; color: rgb(0 , 0 , 0) ; font-weight: normal ; text-decoration: none ; font-style: normal&quot;&gt;Displays a list of foods to select&lt;/span&gt;&lt;/font&gt;" style="endArrow=open;endFill=1;endSize=12;html=1;rounded=0;" parent="1" edge="1">
          <mxGeometry width="160" relative="1" as="geometry">
            <mxPoint x="650" y="390" as="sourcePoint" />
            <mxPoint x="170" y="390.0000000000001" as="targetPoint" />
          </mxGeometry>
        </mxCell>
        <mxCell id="w5Yw9LY-AuXsBXbNcG6X-9" value="&lt;font face=&quot;Georgia&quot;&gt;&lt;span style=&quot;font-size: 13px ; color: rgb(0 , 0 , 0) ; font-weight: normal ; text-decoration: none ; font-style: normal&quot;&gt;&lt;span style=&quot;font-size: 13px ; color: rgb(0 , 0 , 0) ; font-weight: normal ; text-decoration: none ; font-style: normal&quot;&gt;dish selection is save&lt;/span&gt;d&lt;/span&gt;&lt;br&gt;&lt;br&gt;&lt;/font&gt;" style="endArrow=open;endFill=1;endSize=12;html=1;rounded=0;" parent="1" edge="1">
          <mxGeometry x="0.0213" width="160" relative="1" as="geometry">
            <mxPoint x="650" y="460" as="sourcePoint" />
            <mxPoint x="170" y="460" as="targetPoint" />
            <mxPoint as="offset" />
          </mxGeometry>
        </mxCell>
        <mxCell id="w5Yw9LY-AuXsBXbNcG6X-10" value="&lt;font style=&quot;font-size: 10px&quot; face=&quot;Georgia&quot;&gt;&lt;br&gt;&lt;/font&gt;&lt;div style=&quot;font-size: 10px&quot;&gt;&lt;font style=&quot;font-size: 10px&quot; face=&quot;Georgia&quot;&gt;&lt;span style=&quot;color: rgb(0 , 0 , 0) ; font-weight: normal ; text-decoration: none ; font-style: normal&quot;&gt;Food choice is saved, Page detailing a suggested dish and it&#39;s benefits displayed, &lt;br&gt;&lt;/span&gt;&lt;/font&gt;&lt;/div&gt;&lt;div style=&quot;font-size: 10px&quot;&gt;&lt;font style=&quot;font-size: 10px&quot; face=&quot;Georgia&quot;&gt;&lt;span style=&quot;color: rgb(0 , 0 , 0) ; font-weight: normal ; text-decoration: none ; font-style: normal&quot;&gt;Calories from dish are recorded and added to the daily intake&lt;/span&gt;&lt;/font&gt;&lt;/div&gt;" style="endArrow=open;endFill=1;endSize=12;html=1;rounded=0;" parent="1" edge="1">
          <mxGeometry width="160" relative="1" as="geometry">
            <mxPoint x="650" y="540" as="sourcePoint" />
            <mxPoint x="170" y="540" as="targetPoint" />
          </mxGeometry>
        </mxCell>
        <mxCell id="w5Yw9LY-AuXsBXbNcG6X-13" value="" style="endArrow=block;dashed=1;endFill=0;endSize=12;html=1;rounded=0;" parent="1" edge="1">
          <mxGeometry width="160" relative="1" as="geometry">
            <mxPoint x="170" y="510" as="sourcePoint" />
            <mxPoint x="650" y="510" as="targetPoint" />
          </mxGeometry>
        </mxCell>
        <mxCell id="w5Yw9LY-AuXsBXbNcG6X-14" value="&lt;font face=&quot;Georgia&quot;&gt;submitSelectedDish()&lt;/font&gt;" style="edgeLabel;html=1;align=center;verticalAlign=middle;resizable=0;points=[];" parent="w5Yw9LY-AuXsBXbNcG6X-13" vertex="1" connectable="0">
          <mxGeometry x="0.0382" y="2" relative="1" as="geometry">
            <mxPoint as="offset" />
          </mxGeometry>
        </mxCell>
        <mxCell id="w5Yw9LY-AuXsBXbNcG6X-15" value="" style="endArrow=block;dashed=1;endFill=0;endSize=12;html=1;rounded=0;" parent="1" edge="1">
          <mxGeometry width="160" relative="1" as="geometry">
            <mxPoint x="170" y="440.0000000000001" as="sourcePoint" />
            <mxPoint x="650" y="440.0000000000001" as="targetPoint" />
          </mxGeometry>
        </mxCell>
        <mxCell id="w5Yw9LY-AuXsBXbNcG6X-16" value="&lt;font face=&quot;Georgia&quot;&gt;selectDish(foodItem)&lt;/font&gt;" style="edgeLabel;html=1;align=center;verticalAlign=middle;resizable=0;points=[];" parent="w5Yw9LY-AuXsBXbNcG6X-15" vertex="1" connectable="0">
          <mxGeometry x="0.0382" y="2" relative="1" as="geometry">
            <mxPoint as="offset" />
          </mxGeometry>
        </mxCell>
        <mxCell id="xBAhP-Yvz8wR7bpXXLpl-1" value="" style="endArrow=block;dashed=1;endFill=0;endSize=12;html=1;rounded=0;" parent="1" edge="1">
          <mxGeometry width="160" relative="1" as="geometry">
            <mxPoint x="170" y="310" as="sourcePoint" />
            <mxPoint x="650" y="310" as="targetPoint" />
          </mxGeometry>
        </mxCell>
        <mxCell id="xBAhP-Yvz8wR7bpXXLpl-2" value="&lt;font face=&quot;Georgia&quot;&gt;chooseMealToAdjust(BreakFast,Lunch,Dinner)&lt;/font&gt;" style="edgeLabel;html=1;align=center;verticalAlign=middle;resizable=0;points=[];" parent="xBAhP-Yvz8wR7bpXXLpl-1" vertex="1" connectable="0">
          <mxGeometry x="0.0382" y="2" relative="1" as="geometry">
            <mxPoint as="offset" />
          </mxGeometry>
        </mxCell>
        <mxCell id="xBAhP-Yvz8wR7bpXXLpl-3" value="&lt;font face=&quot;Georgia&quot;&gt;&lt;span style=&quot;font-size: 13px&quot;&gt;N/A&lt;/span&gt;&lt;/font&gt;" style="endArrow=open;endFill=1;endSize=12;html=1;rounded=0;" parent="1" edge="1">
          <mxGeometry width="160" relative="1" as="geometry">
            <mxPoint x="650" y="330" as="sourcePoint" />
            <mxPoint x="170" y="330" as="targetPoint" />
          </mxGeometry>
        </mxCell>
        <mxCell id="UoknawTNdpLsGBWJEgKG-1" value="&lt;font style=&quot;font-size: 18px&quot;&gt;Submit Food Item&lt;/font&gt;" style="text;html=1;resizable=0;autosize=1;align=center;verticalAlign=middle;points=[];fillColor=none;strokeColor=none;rounded=0;" vertex="1" parent="1">
          <mxGeometry x="320" y="150" width="160" height="20" as="geometry" />
        </mxCell>
      </root>
    </mxGraphModel>
  </diagram>
</mxfile>
